<svg width="64" height="64" viewBox="0 0 64 64" fill="none" xmlns="http://www.w3.org/2000/svg">
<g clip-path="url(#clip0_282:32)">
<path opacity="0.2" d="M63.5628 29.6003C66.4918 46.9219 54.4498 64 35.3586 64C26.6561 64 20.6468 59.8894 13.6252 52.6569C5.24026 44.0195 -0.102823 39.2325 -6.97921e-06 29.6003C0.167173 14.1528 18.5278 0 37.6156 0C56.7034 0 60.8879 13.7824 63.5628 29.6003Z" fill="#66BB6A"/>
<path d="M46.3703 23H16.9903C15.8911 23 15 23.9871 15 25.2047V38.6255C15 39.8432 15.8911 40.8303 16.9903 40.8303H46.3703C47.4695 40.8303 48.3605 39.8432 48.3605 38.6255V25.2047C48.3605 23.9871 47.4695 23 46.3703 23Z" fill="#66BB6A"/>
<path d="M47.3818 37.8597V25.9704C47.3818 24.9289 46.6196 24.0846 45.6794 24.0846L17.6819 24.0846C16.7417 24.0846 15.9795 24.9289 15.9795 25.9704V37.8597C15.9795 38.9012 16.7417 39.7456 17.6819 39.7456H45.6794C46.6196 39.7456 47.3818 38.9012 47.3818 37.8597Z" fill="#3D893E"/>
<path d="M45.679 24.8077H17.6815C17.1018 24.8077 16.6318 25.3283 16.6318 25.9705V37.8597C16.6318 38.5019 17.1018 39.0225 17.6815 39.0225H45.679C46.2587 39.0225 46.7286 38.5019 46.7286 37.8597V25.9705C46.7286 25.3283 46.2587 24.8077 45.679 24.8077Z" fill="#66BB6A"/>
<path d="M31.68 37.5191C34.4739 37.5191 36.7389 35.0101 36.7389 31.9151C36.7389 28.8201 34.4739 26.311 31.68 26.311C28.886 26.311 26.6211 28.8201 26.6211 31.9151C26.6211 35.0101 28.886 37.5191 31.68 37.5191Z" fill="#3D893E"/>
<path d="M31.6799 36.9262C34.1782 36.9262 36.2035 34.6826 36.2035 31.915C36.2035 29.1475 34.1782 26.9039 31.6799 26.9039C29.1816 26.9039 27.1562 29.1475 27.1562 31.915C27.1562 34.6826 29.1816 36.9262 31.6799 36.9262Z" fill="#4A9C4E"/>
<path d="M31.9566 33.1147C31.9292 33.1147 31.8744 33.1147 31.8195 33.1096C31.2392 33.0792 31.0702 32.9426 30.9331 32.73C30.7503 32.4516 30.6178 32.1428 30.4625 31.8391C30.3939 31.7024 30.3319 31.6721 30.1837 31.6721L30.0923 31.667V32.406C30.0923 32.816 30.138 32.8515 30.4807 32.897V33.0843H29.0806V32.897C29.4278 32.8565 29.4722 32.816 29.4722 32.406V30.4674C29.4722 30.0675 29.4265 30.0118 29.0806 29.9815V29.7935H30.4057C30.8123 29.7935 31.0454 29.8448 31.2327 29.9865C31.3314 30.0605 31.4113 30.1611 31.4649 30.279C31.5185 30.3968 31.5439 30.5279 31.5389 30.6597C31.5389 31.1102 31.2693 31.3481 30.9677 31.4797C31.0362 31.6316 31.2144 31.9606 31.3515 32.1934C31.4544 32.3789 31.5706 32.5549 31.6988 32.7199C31.7705 32.8265 31.8715 32.9047 31.9866 32.9426L31.9566 33.1147ZM30.2157 31.4595C30.4115 31.4595 30.563 31.4241 30.6635 31.3279C30.8143 31.1833 30.8783 30.9938 30.8783 30.7357C30.8783 30.1991 30.5995 30.0068 30.3437 30.0068C30.2203 30.0068 30.1609 30.027 30.1335 30.0574C30.1061 30.0878 30.0923 30.1485 30.0923 30.2497V31.4595H30.2157Z" fill="white"/>
<path d="M32.0664 30.9534C32.3503 30.895 32.631 30.819 32.9071 30.7256V31.0871C32.9163 31.0821 33.2133 30.8847 33.227 30.8796C33.3155 30.8152 33.4181 30.7784 33.524 30.7733C34.0266 30.7733 34.3145 31.2845 34.3145 31.7705C34.3145 32.5095 33.7844 32.9997 33.195 33.1444C33.0974 33.1479 32.9999 33.1325 32.9071 33.0988V33.7062C32.9071 33.9897 32.93 34.02 33.2452 34.0678V34.2348H32.0181V34.0678C32.2968 34.0374 32.3151 33.9918 32.3151 33.7134V31.4545C32.3151 31.1811 32.2877 31.1508 32.0638 31.1204L32.0664 30.9534ZM32.9071 32.7148C33.0095 32.8221 33.1415 32.8881 33.2818 32.9021C33.524 32.9021 33.7022 32.5731 33.7022 32.0264C33.7022 31.4039 33.4234 31.166 33.195 31.166C33.0909 31.1687 32.9902 31.2077 32.9071 31.2773V32.7148Z" fill="white"/>
</g>
<defs>
<clipPath id="clip0_282:32">
<rect width="64" height="64" fill="white"/>
</clipPath>
</defs>
</svg>
