<svg width="64" height="64" viewBox="0 0 64 64" fill="none" xmlns="http://www.w3.org/2000/svg">
<path d="M38.4359 17.2614H26.3741C25.2201 17.2614 24.2847 18.1194 24.2847 19.1779V44.6157C24.2847 45.6742 25.2201 46.5322 26.3741 46.5322H38.4359C39.5899 46.5322 40.5253 45.6742 40.5253 44.6157V19.1779C40.5253 18.1194 39.5899 17.2614 38.4359 17.2614Z" fill="#D7D7D7"/>
<path d="M38.4362 17.5227C38.9147 17.5227 39.3737 17.6971 39.7121 18.0075C40.0506 18.3179 40.2407 18.7389 40.2407 19.1779V44.6157C40.2407 45.0547 40.0506 45.4757 39.7121 45.7861C39.3737 46.0965 38.9147 46.2709 38.4362 46.2709H26.3744C25.8958 46.2709 25.4368 46.0965 25.0984 45.7861C24.76 45.4757 24.5698 45.0547 24.5698 44.6157V19.1779C24.5698 18.7389 24.76 18.3179 25.0984 18.0075C25.4368 17.6971 25.8958 17.5227 26.3744 17.5227H38.4362ZM38.4362 17H26.3744C25.7446 17 25.1407 17.2295 24.6954 17.6379C24.2502 18.0463 24 18.6003 24 19.1779V44.6157C24 45.1933 24.2502 45.7473 24.6954 46.1557C25.1407 46.5641 25.7446 46.7936 26.3744 46.7936H38.4362C39.0659 46.7936 39.6698 46.5641 40.1151 46.1557C40.5604 45.7473 40.8105 45.1933 40.8105 44.6157V19.1779C40.8105 18.6003 40.5604 18.0463 40.1151 17.6379C39.6698 17.2295 39.0659 17 38.4362 17Z" fill="black"/>
<path d="M39.2432 20.0159V43.7767C39.2432 43.9154 39.2135 44.0527 39.1556 44.1808C39.0978 44.3089 39.013 44.4253 38.9061 44.5233C38.7992 44.6214 38.6723 44.6992 38.5327 44.7522C38.393 44.8053 38.2433 44.8326 38.0922 44.8326H26.718C26.4127 44.8326 26.1199 44.7213 25.904 44.5233C25.6882 44.3253 25.5669 44.0568 25.5669 43.7767V20.0159C25.5671 19.7358 25.6886 19.4673 25.9047 19.2693C26.1207 19.0713 26.4136 18.9601 26.7189 18.9601H38.0912C38.3966 18.9601 38.6895 19.0713 38.9055 19.2693C39.1215 19.4673 39.243 19.7358 39.2432 20.0159Z" fill="#383838"/>
<path d="M39.2432 27.9165V43.7768C39.2432 43.9155 39.2135 44.0527 39.1556 44.1809C39.0978 44.309 39.013 44.4253 38.9061 44.5234C38.7992 44.6214 38.6723 44.6992 38.5327 44.7523C38.393 44.8053 38.2433 44.8326 38.0922 44.8326H26.718C26.4127 44.8326 26.1199 44.7214 25.904 44.5234C25.6882 44.3254 25.5669 44.0568 25.5669 43.7768V32.9605L39.2432 27.9165Z" fill="#1D1D1E"/>
<path opacity="0.2" d="M22.4281 2.59077C19.5458 2.53746 16.6635 2.15764 13.7967 2.52547C10.9298 2.8933 8.01203 4.12474 6.11191 6.71955C5.28064 7.87615 4.68062 9.24615 4.3578 10.7246C4.03498 12.203 3.99792 13.7507 4.24948 15.249C4.87583 18.8247 7.10631 21.7793 7.66504 25.3777C8.41667 30.2141 6.01546 34.8587 3.77278 38.9715C1.5301 43.0842 -0.755807 47.8754 0.239706 52.6492C0.876037 55.6985 2.80831 58.1773 5.06207 59.7739C7.31583 61.3705 9.88333 62.1915 12.432 62.8965C15.9141 63.8587 19.6201 64.629 23.0057 63.2577C26.4579 61.8596 29.1551 58.3932 32.6604 57.2004C34.4131 56.6034 36.2644 56.6154 38.0859 56.6314L50.5653 56.7407C51.4277 56.7486 52.3024 56.7553 53.1372 56.4901C54.1726 56.1609 55.085 55.4346 55.9752 54.7189C59.1047 52.2094 62.4416 49.376 63.5734 45.0633C65.0601 39.3979 62.2132 33.4926 61.8307 27.57C61.6223 24.3461 62.1434 20.997 61.2764 17.9357C60.3197 14.5533 57.8099 12.1184 55.1382 10.5565C52.4665 8.99451 49.5542 8.12957 46.8193 6.72088C44.8139 5.69179 42.9163 4.38249 41.1655 2.82C39.6878 1.50061 36.3354 -0.390529 34.3665 0.0705935C29.5353 1.19941 27.4223 2.6854 22.4281 2.59077Z" fill="#4C4C4C"/>
</svg>
