<svg width="64" height="64" viewBox="0 0 64 64" fill="none" xmlns="http://www.w3.org/2000/svg">
<g clip-path="url(#clip0_276:36)">
<path opacity="0.34" d="M64 29.756C64 48.0167 54.6112 64.0013 38.1659 64.0013C21.7205 64.0013 0 52.3862 0 34.1255C0 15.8648 11.7325 0 28.1732 0C44.614 0 64 11.4966 64 29.756Z" fill="#F9BF30"/>
<path d="M33.3335 43.6129C39.9609 43.6129 45.3335 38.2403 45.3335 31.6129C45.3335 24.9855 39.9609 19.6129 33.3335 19.6129C26.7061 19.6129 21.3335 24.9855 21.3335 31.6129C21.3335 38.2403 26.7061 43.6129 33.3335 43.6129Z" fill="#FFC84D"/>
<path d="M33.3323 33.389H40.5323C40.5323 37.3385 37.2818 40.589 33.3323 40.589C29.3829 40.589 26.1323 37.3385 26.1323 33.389H33.3323Z" fill="white" stroke="black" stroke-miterlimit="10"/>
<path d="M26.0366 29.8869C26.0366 29.5314 26.1066 29.1793 26.2427 28.8509C26.3787 28.5224 26.5782 28.224 26.8295 27.9726C27.0809 27.7212 27.3794 27.5218 27.7078 27.3858C28.0363 27.2497 28.3883 27.1797 28.7438 27.1797C29.0993 27.1797 29.4514 27.2497 29.7798 27.3858C30.1083 27.5218 30.4067 27.7212 30.6581 27.9726C30.9095 28.224 31.1089 28.5224 31.2449 28.8509C31.381 29.1793 31.451 29.5314 31.451 29.8869" stroke="black" stroke-miterlimit="10"/>
<path d="M35.2046 29.8868C35.2179 29.1775 35.5091 28.5018 36.0154 28.0049C36.5218 27.508 37.2028 27.2296 37.9123 27.2296C38.6217 27.2296 39.3028 27.508 39.8091 28.0049C40.3154 28.5018 40.6066 29.1775 40.6199 29.8868" stroke="black" stroke-miterlimit="10"/>
<path d="M27.1089 36.9889H39.6417" stroke="black" stroke-miterlimit="10"/>
<path d="M28.7446 33.389V38.9196" stroke="black" stroke-miterlimit="10"/>
<path d="M37.9126 33.389V38.9196" stroke="black" stroke-miterlimit="10"/>
<path d="M31.9941 33.389V40.589" stroke="black" stroke-miterlimit="10"/>
<path d="M35.2046 33.389V40.3385" stroke="black" stroke-miterlimit="10"/>
</g>
<defs>
<clipPath id="clip0_276:36">
<rect width="64" height="64" fill="white"/>
</clipPath>
</defs>
</svg>
