<svg id="visual" viewBox="0 0 300 200" width="300" height="200" xmlns="http://www.w3.org/2000/svg" xmlns:xlink="http://www.w3.org/1999/xlink" version="1.1"><rect x="0" y="0" width="300" height="200" fill="#0e0712"></rect><defs><linearGradient id="grad1_0" x1="33.3%" y1="0%" x2="100%" y2="100%"><stop offset="20%" stop-color="#48008e" stop-opacity="1"></stop><stop offset="80%" stop-color="#48008e" stop-opacity="1"></stop></linearGradient></defs><defs><linearGradient id="grad1_1" x1="33.3%" y1="0%" x2="100%" y2="100%"><stop offset="20%" stop-color="#48008e" stop-opacity="1"></stop><stop offset="80%" stop-color="#2c0f4c" stop-opacity="1"></stop></linearGradient></defs><defs><linearGradient id="grad1_2" x1="33.3%" y1="0%" x2="100%" y2="100%"><stop offset="20%" stop-color="#0e0712" stop-opacity="1"></stop><stop offset="80%" stop-color="#2c0f4c" stop-opacity="1"></stop></linearGradient></defs><defs><linearGradient id="grad2_0" x1="0%" y1="0%" x2="66.7%" y2="100%"><stop offset="20%" stop-color="#48008e" stop-opacity="1"></stop><stop offset="80%" stop-color="#48008e" stop-opacity="1"></stop></linearGradient></defs><defs><linearGradient id="grad2_1" x1="0%" y1="0%" x2="66.7%" y2="100%"><stop offset="20%" stop-color="#2c0f4c" stop-opacity="1"></stop><stop offset="80%" stop-color="#48008e" stop-opacity="1"></stop></linearGradient></defs><defs><linearGradient id="grad2_2" x1="0%" y1="0%" x2="66.7%" y2="100%"><stop offset="20%" stop-color="#2c0f4c" stop-opacity="1"></stop><stop offset="80%" stop-color="#0e0712" stop-opacity="1"></stop></linearGradient></defs><g transform="translate(300, 0)"><path d="M0 99.2C-12.6 88.6 -25.2 78 -41 71C-56.8 64.1 -75.7 60.8 -85.9 49.6C-96.1 38.4 -97.6 19.2 -99.2 0L0 0Z" fill="#1e0e2e"></path><path d="M0 66.1C-8.4 59 -16.8 52 -27.3 47.3C-37.8 42.7 -50.4 40.5 -57.2 33.1C-64.1 25.6 -65.1 12.8 -66.1 0L0 0Z" fill="#3a0b6c"></path><path d="M0 33.1C-4.2 29.5 -8.4 26 -13.7 23.7C-18.9 21.4 -25.2 20.3 -28.6 16.5C-32 12.8 -32.5 6.4 -33.1 0L0 0Z" fill="#48008e"></path></g><g transform="translate(0, 200)"><path d="M0 -99.2C13.7 -90.4 27.4 -81.6 43 -74.5C58.6 -67.3 76.2 -61.7 85.9 -49.6C95.6 -37.4 97.4 -18.7 99.2 0L0 0Z" fill="#1e0e2e"></path><path d="M0 -66.1C9.1 -60.3 18.3 -54.4 28.7 -49.7C39.1 -44.9 50.8 -41.2 57.2 -33.1C63.7 -25 64.9 -12.5 66.1 0L0 0Z" fill="#3a0b6c"></path><path d="M0 -33.1C4.6 -30.1 9.1 -27.2 14.3 -24.8C19.5 -22.4 25.4 -20.6 28.6 -16.5C31.9 -12.5 32.5 -6.2 33.1 0L0 0Z" fill="#48008e"></path></g></svg>