<svg xmlns="http://www.w3.org/2000/svg" xmlns:xlink="http://www.w3.org/1999/xlink" viewBox="0 0 938.3 490.89"><defs><style>.cls-1{fill:#6f00ff;}.cls-2{fill:#fff;opacity:0.1;}.cls-3{fill:url(#radial-gradient);}.cls-4{fill:url(#radial-gradient-2);}.cls-5{fill:none;stroke:#fff;stroke-miterlimit:10;}</style><radialGradient id="radial-gradient" cx="219.59" cy="268.14" r="214.31" gradientUnits="userSpaceOnUse"><stop offset="0" stop-color="#ae22ff"/><stop offset="0" stop-color="#ae22ff" stop-opacity="0.99"/><stop offset="0.15" stop-color="#a91fff" stop-opacity="0.7"/><stop offset="0.28" stop-color="#a61cff" stop-opacity="0.45"/><stop offset="0.4" stop-color="#a31aff" stop-opacity="0.26"/><stop offset="0.51" stop-color="#a118ff" stop-opacity="0.12"/><stop offset="0.6" stop-color="#9f17ff" stop-opacity="0.03"/><stop offset="0.65" stop-color="#9f17ff" stop-opacity="0"/></radialGradient><radialGradient id="radial-gradient-2" cx="718.44" cy="98.07" r="126.78" gradientUnits="userSpaceOnUse"><stop offset="0" stop-color="#a706f2"/><stop offset="0.02" stop-color="#a707f3" stop-opacity="0.96"/><stop offset="0.13" stop-color="#a50bf5" stop-opacity="0.73"/><stop offset="0.24" stop-color="#a30ef8" stop-opacity="0.54"/><stop offset="0.36" stop-color="#a211fa" stop-opacity="0.37"/><stop offset="0.47" stop-color="#a113fc" stop-opacity="0.24"/><stop offset="0.59" stop-color="#a015fd" stop-opacity="0.13"/><stop offset="0.72" stop-color="#9f16fe" stop-opacity="0.06"/><stop offset="0.85" stop-color="#9f17ff" stop-opacity="0.01"/><stop offset="1" stop-color="#9f17ff" stop-opacity="0"/></radialGradient></defs><g id="Layer_2" data-name="Layer 2"><g id="bg"><rect class="cls-1" x="0.06" y="0.42" width="938" height="490"/></g><g id="waves"><path class="cls-2" d="M938.06,104.24V490.42H127.18a144.9,144.9,0,0,1,30.68-61.21,165.28,165.28,0,0,1,22.25-21.89C206.23,386,235,375,255.65,369.41c1.15-.32,2.27-.61,3.37-.89,14.5-3.69,28.21-6.09,40.31-8.2,13.38-2.34,27.19-4.76,34.17-7.84,11.27-5,25.32-20.39,40.35-37.76,1.88-2.16,3.77-4.36,5.67-6.57,14.93-17.34,31.84-37,52.5-55.18,4-3.49,8.63-7.45,14-11.58A189.66,189.66,0,0,1,492.24,215a180.21,180.21,0,0,1,45.25-11.12h0a225.1,225.1,0,0,1,26-1.45c14.44,0,28,1.24,38.87,2.24l6.72.61c9,.77,16.73,1.14,23.72,1.14,13.55,0,24.38-1.45,32.19-4.33,8.37-3.07,18.76-9.64,30-17.31,3.6-2.46,7.29-5,11-7.63,13.82-9.63,29.48-20.53,47.25-30.45l2-1.12,2.05-1c9.06-4.54,19-9.31,29.81-13.87h0a318.61,318.61,0,0,1,46.76-15.82c7.56-1.89,16.66-3.92,26.91-5.71a347.17,347.17,0,0,1,59.5-5.41Q929.34,103.69,938.06,104.24Z"/><path class="cls-2" d="M938.06,154.37V490.42H179.27c6.11-16.67,17.15-31.87,32.44-44.35.68-.55,1.36-1.1,2-1.63,20-15.64,42.23-23.55,57.6-27.47,12.65-3.22,24.83-5.35,36.61-7.4,17-3,33.16-5.8,45.71-11.34,12.12-5.34,23.09-14,34-24.62,9.76-9.58,19.44-20.83,29.78-32.84,4-4.61,8-9.27,12.08-13.93,5.31-6,10.75-12.06,16.47-18,6-6.27,12.36-12.42,19.1-18.36,9.82-8.66,25.22-21.08,45.39-29,15.71-6.14,33.05-9.13,53-9.13,12.14,0,23.91,1.08,34.3,2l7,.63c10.41.9,19.58,1.33,28,1.33,19.73,0,35.9-2.42,49.45-7.4a119.5,119.5,0,0,0,15.2-6.93h0c12.1-6.47,24.37-15,37.14-23.91,13.5-9.4,27.45-19.11,43-27.83l1-.55,1-.51c18.47-9.23,40.79-19.53,66.37-25.93,17.56-4.39,44.7-9.62,74.28-9.62Q929.41,153.69,938.06,154.37Z"/><path class="cls-2" d="M938.06,204.54V490.42H237.21c6.95-7.24,16-13.15,25.73-17.65a120,120,0,0,1,20.75-7.34c30-7.64,61.84-9,90.17-21.45a133.82,133.82,0,0,0,16.47-8.72C406.81,425,421,411.61,434.49,397c17.87-19.37,34.42-40.75,53.21-59.29q5.08-5,10.42-9.74c9.17-8.09,19.18-15.48,30.56-19.94,22.53-8.81,47.71-5.29,71.81-3.21,33.29,2.86,67.66,2.57,99-9,27.54-10.12,51-28.21,75.36-44.82h0C783.74,245,792.71,239.17,802,234c18.23-9.11,36.27-17.17,56.14-22.14C882.11,205.83,911.39,201.86,938.06,204.54Z"/><path class="cls-2" d="M250.3.42a110.08,110.08,0,0,1-15.89,26.12A132,132,0,0,1,222.6,39.23c-1.27,1.6-2,2.59-2.41,3.18-.25.61-.53,1.34-.76,1.9-1.48,3.77-3.52,8.93-6.34,14.87a151,151,0,0,1-8.61,15.72c-17.36,27.55-41,43.57-53.77,52.18-12,8.08-32,21.62-58.95,28.68-15.65,4.09-29.15,4.88-38.08,5.4-1.57.09-3.34.19-4.31.27A24.36,24.36,0,0,0,37.45,166c-1.32,1-3.58,2.84-5.77,4.64-7.57,6.22-18,14.81-31.62,22.67V.42Z"/><path class="cls-2" d="M190.75.42c-1.34,1.37-2.56,2.53-3.57,3.49-.47.45-1.09,1-1.42,1.38-4.08,4.94-8.49,10.6-10.73,15.51-.48,1.07-1.07,2.52-1.69,4.12-.14.34-.28.7-.42,1.06a128.59,128.59,0,0,1-10.74,22.26c-11.76,18.67-28.45,29.95-39.49,37.42-10.5,7.1-24.88,16.83-43.59,21.73-10.85,2.84-20.54,3.4-28.32,3.85-2.1.12-4.08.24-5.74.38A74.37,74.37,0,0,0,7.59,125.86c-2.18,1.63-4.66,3.66-7.29,5.82l-.24.2V.42Z"/><path class="cls-2" d="M129.38.42C126.2,7.48,124,15,119.88,21.58c-6.07,9.64-15.77,16.29-25.2,22.67-8.85,6-17.91,12.06-28.24,14.77-8.37,2.18-17.13,2-25.74,2.79A123.69,123.69,0,0,0,.06,72.57V.42Z"/></g><g id="cirle"><path class="cls-3" d="M448.26,274.85a252.59,252.59,0,0,1-2.29,34q-1.41,10.54-3.71,20.79a250,250,0,0,1-51.93,105.62,252.25,252.25,0,0,1-64.41,55.16H68.5A252,252,0,0,1,.06,430.28V119.41A252.16,252.16,0,0,1,72,57.2q7.67-4.43,15.68-8.31a249.28,249.28,0,0,1,85.65-24q11.79-1.11,23.87-1.12a252,252,0,0,1,37.2,2.74,248.54,248.54,0,0,1,52.34,13.7A251.68,251.68,0,0,1,437.12,200.69a248.33,248.33,0,0,1,8.92,40.7A251.29,251.29,0,0,1,448.26,274.85Z"/><path class="cls-4" d="M884.87,23.8a164,164,0,0,1-1.65,23.28,162,162,0,0,1-22.4,62,163.86,163.86,0,0,1-12.48,17.59,162.82,162.82,0,0,1-126.57,60.22A165.09,165.09,0,0,1,695,184.73,163.34,163.34,0,0,1,569.07,81.24a162.79,162.79,0,0,1-10.4-57.44A165.29,165.29,0,0,1,560.33.42H883.21A165.29,165.29,0,0,1,884.87,23.8Z"/></g><g id="line"><path class="cls-5" d="M789.78.42c12.36,10.66,23.77,23.75,37.31,32.31,33,20.88,73.13,12.38,111,14.33"/><path class="cls-5" d="M.06,308.45c23.37-2.26,47.15-2.44,70.59-2.56l152.21-.75c43.44-.21,87.09-.42,130.06,6,59.87,8.92,118.32,30.61,178.84,29.2,39.56-.93,78.55-11.76,118.09-10.7,19.22.51,38.24,3.83,57.33,6,76.91,8.78,154.29-.91,230.88-14"/><path class="cls-5" d="M.06,419.34l125.83,7.35c16,.93,32,1.87,47.64,5,42,8.31,79,31.48,112.58,58.77"/><path class="cls-5" d="M642,490.42l63.69-29.14c7-3.22,14.12-6.46,21.61-8.41,12.29-3.2,25.18-2.83,37.87-2.61,20.58.36,41.16.24,61.74.13,12.19-.06,24.64-.17,36.19-4.09,2.73-.94,5.51-2.16,7.35-4.39,1.68-2,2.4-4.67,3.75-6.92,2.2-3.64,5.9-6.05,9.49-8.31q26.63-16.76,54.34-31.67"/><path class="cls-5" d="M.06,222.4c28.28-1.79,56.63-2.28,84.49,2.43,16,2.71,31.73,7.12,47.52,11,62.76,15.6,129.73,23.38,191.54,4.35,32.27-9.94,62.15-26.9,94.8-35.52,90.77-24,183.88,19.25,276.12,36.79,65.36,12.43,132.42,11.88,199,11.28,15-.14,30.3-.32,44.58-4.84"/><path class="cls-5" d="M.06,355.59c75.65-9.74,154,16.7,231.38,15.08,41.54-.87,83.15-9.86,124.33-4.36a179,179,0,0,1,80,31.62c22.77,16.26,41.46,37.68,64.12,54.08,18.78,13.59,40,23.48,61.25,32.61q6.89,3,13.84,5.8"/><path class="cls-5" d="M349.62.42c33.94,22.85,63.41,58.12,102.71,71,35.89,11.72,75.23,3.16,112.52,9.12,29.88,4.78,57.82,18.94,81.26,38.08,6.78,5.54,13.32,11.56,21.21,15.38,9.54,4.61,20.41,5.65,31,5.81,30.56.45,60.75-5.85,91.1-9.4,49.33-5.77,99.13-4.26,148.63.61"/><path class="cls-5" d="M.06,131.7c7.3-.53,14.62-.77,21.85-.94q36.95-.85,73.91,0c19.78.45,42.07.32,55.9-13.83,6.46-6.61,10.06-15.42,14.95-23.26a80.37,80.37,0,0,1,56.25-36.53c20.14-2.81,43.21,1.42,58.76-11.69,5.16-4.36,8.81-10.2,12.9-15.57a123.13,123.13,0,0,1,33-29.45"/></g></g></svg>